<svg xmlns="http://www.w3.org/2000/svg" width="1200" height="420" viewBox="0 0 1200 420" role="img" aria-labelledby="title desc">
  <title id="title">Jack Winter — software engineer in London</title>
  <desc id="desc">Usually building something. Occasionally playing padel. A warm cream banner with a laptop, padel racket and ball.</desc>
  <defs>
    <pattern id="grid" width="36" height="36" patternUnits="userSpaceOnUse">
      <path d="M36 0H0V36" fill="none" stroke="#66203d" stroke-opacity="0.045"/>
    </pattern>
  </defs>
  <rect width="1200" height="420" rx="20" fill="#f9efe5"/>
  <rect width="1200" height="420" rx="20" fill="url(#grid)"/>
  <circle cx="1000" cy="210" r="172" fill="#eedfce"/>
  <g font-family="ui-monospace, SFMono-Regular, Menlo, Consolas, monospace">
    <text x="64" y="94" font-size="15" letter-spacing="3" fill="#66203d">HELLO, I'M</text>
    <text x="60" y="179" font-family="ui-sans-serif, system-ui, -apple-system, BlinkMacSystemFont, Segoe UI, sans-serif" font-size="78" font-weight="700" letter-spacing="-4" fill="#66203d">jack winter.</text>
    <text x="64" y="231" font-size="23" fill="#66203d">Software engineer in London.</text>
    <path d="M64 268h48" stroke="#d4854a" stroke-width="4" stroke-linecap="round"/>
    <text x="64" y="313" font-size="18" fill="#76594f">Usually building something.</text>
    <text x="64" y="342" font-size="18" fill="#76594f">Occasionally playing padel.</text>
  </g>
  <g transform="translate(734 87) scale(2.05)">
  <g stroke="#66203d" stroke-width="2.5" stroke-linejoin="round" stroke-linecap="round">
    <rect x="23" y="30" width="108" height="66" rx="5" fill="#f9efe5"/>
    <rect x="31" y="38" width="92" height="49" rx="2" fill="#eff5e8"/>
    <path d="M54 60l-7 6 7 6m45-12 7 6-7 6" fill="none" stroke="#3d5a24"/>
    <path d="M83 56l-9 20" fill="none" stroke="#3d5a24"/>
    <path d="M23 96h108l13 8H10z" fill="#eedfce"/>
    <path d="M63 96h28l3 4H60z" fill="#f9efe5"/>
    <g transform="rotate(23 163 66)">
      <path d="M157 73h12v16h-12z" fill="#d4854a"/>
      <rect x="157" y="86" width="12" height="24" rx="3" fill="#f9efe5"/>
      <path d="M158 92h10m-10 6h10m-10 6h10" fill="none" stroke="#d4854a" stroke-width="2"/>
      <path d="M163 16c-17 0-25 11-25 27 0 15 9 27 19 32h12c10-5 19-17 19-32 0-16-8-27-25-27z" fill="#d4854a"/>
      <path d="M163 22c-13 0-19 8-19 21 0 12 7 22 15 27h8c8-5 15-15 15-27 0-13-6-21-19-21z" fill="#f9efe5"/>
      <g fill="#66203d" stroke="none">
        <circle cx="155" cy="34" r="2"/><circle cx="163" cy="34" r="2"/><circle cx="171" cy="34" r="2"/>
        <circle cx="151" cy="43" r="2"/><circle cx="159" cy="43" r="2"/><circle cx="167" cy="43" r="2"/><circle cx="175" cy="43" r="2"/>
        <circle cx="155" cy="52" r="2"/><circle cx="163" cy="52" r="2"/><circle cx="171" cy="52" r="2"/>
        <circle cx="159" cy="61" r="2"/><circle cx="167" cy="61" r="2"/>
      </g>
    </g>
    <circle cx="202" cy="99" r="8" fill="#8fa84a"/>
    <path d="M197 93c5 3 7 7 6 13" fill="none" stroke="#eff5e8" stroke-width="2"/>
  </g>
  </g>
</svg>
